M48
; DRILL file {KiCad (6.0.0)} date Mon Feb 28 16:42:33 2022
; FORMAT={-:-/ absolute / inch / decimal}
; #@! TF.CreationDate,2022-02-28T16:42:33-03:00
; #@! TF.GenerationSoftware,Kicad,Pcbnew,(6.0.0)
; #@! TF.FileFunction,Plated,1,2,PTH
FMAT,2
INCH
; #@! TA.AperFunction,Plated,PTH,ComponentDrill
T1C0.0157
; #@! TA.AperFunction,Plated,PTH,ViaDrill
T2C0.0236
; #@! TA.AperFunction,Plated,PTH,ComponentDrill
T3C0.0280
; #@! TA.AperFunction,Plated,PTH,ComponentDrill
T4C0.0300
; #@! TA.AperFunction,Plated,PTH,ComponentDrill
T5C0.0307
; #@! TA.AperFunction,Plated,PTH,ComponentDrill
T6C0.0311
; #@! TA.AperFunction,Plated,PTH,ComponentDrill
T7C0.0335
; #@! TA.AperFunction,Plated,PTH,ComponentDrill
T8C0.0370
; #@! TA.AperFunction,Plated,PTH,ComponentDrill
T9C0.0394
; #@! TA.AperFunction,Plated,PTH,ComponentDrill
T10C0.0417
; #@! TA.AperFunction,Plated,PTH,ComponentDrill
T11C0.0433
; #@! TA.AperFunction,Plated,PTH,ComponentDrill
T12C0.0440
; #@! TA.AperFunction,Plated,PTH,ComponentDrill
T13C0.0472
; #@! TA.AperFunction,Plated,PTH,ComponentDrill
T14C0.0551
; #@! TA.AperFunction,Plated,PTH,ComponentDrill
T15C0.0591
; #@! TA.AperFunction,Plated,PTH,ComponentDrill
T16C0.0827
; #@! TA.AperFunction,Plated,PTH,ComponentDrill
T17C0.0866
%
G90
G05
T1
X2.6988Y-1.2874
X2.6988Y-5.6181
X2.7178Y-1.2415
X2.7178Y-1.3333
X2.7178Y-5.5722
X2.7178Y-5.664
X2.7638Y-1.2224
X2.7638Y-1.3524
X2.7638Y-5.5531
X2.7638Y-5.6831
X2.8097Y-1.2415
X2.8097Y-1.3333
X2.8097Y-5.5722
X2.8097Y-5.664
X2.8287Y-1.2874
X2.8287Y-5.6181
X8.2106Y-1.2874
X8.2106Y-5.6181
X8.2297Y-1.2415
X8.2297Y-1.3333
X8.2297Y-5.5722
X8.2297Y-5.664
X8.2756Y-1.2224
X8.2756Y-1.3524
X8.2756Y-5.5531
X8.2756Y-5.6831
X8.3215Y-1.2415
X8.3215Y-1.3333
X8.3215Y-5.5722
X8.3215Y-5.664
X8.3406Y-1.2874
X8.3406Y-5.6181
T2
X4.2461Y-1.5266
X4.2469Y-3.835
X4.2913Y-4.5236
X4.2913Y-5.2638
X4.7165Y-2.7283
X4.7165Y-2.9734
X5.0768Y-2.8327
X5.0768Y-2.9724
X5.1555Y-2.8396
X5.1555Y-2.9744
X5.2126Y-4.8858
X5.5748Y-4.9803
X5.6024Y-5.6862
X5.6535Y-2.8356
X5.6535Y-3.1093
X5.6969Y-3.4331
X5.8504Y-4.8937
X5.8551Y-5.687
X6.4134Y-2.8465
X6.748Y-4.2795
X7.4173Y-4.2008
X7.8228Y-3.0197
T3
X3.6104Y-4.6535
X3.6362Y-1.9705
X3.7104Y-4.6535
X3.7362Y-1.9705
X3.8104Y-4.6535
X3.815Y-2.3764
X3.815Y-2.4764
X3.815Y-2.5764
X3.8362Y-1.9705
X4.3744Y-3.2008
X4.4744Y-3.2008
X4.5744Y-3.2008
X6.0772Y-4.0295
X6.1772Y-4.0295
X6.2772Y-4.0295
X6.6386Y-4.6535
X6.7154Y-5.3996
X6.7386Y-4.6535
X6.8154Y-5.3996
X6.8386Y-4.6535
X6.9154Y-5.3996
X7.074Y-4.6483
X7.174Y-4.6483
X7.274Y-4.6483
X7.4504Y-2.6437
X7.4874Y-4.6483
X7.5504Y-2.6437
X7.5874Y-4.6483
X7.6504Y-2.6437
X7.6874Y-4.6483
T4
X4.51Y-4.4969
X4.51Y-4.5969
X4.5124Y-5.4569
X4.5124Y-5.5598
X4.61Y-4.4969
X4.61Y-4.5969
X4.61Y-5.4569
X4.61Y-5.5598
X4.71Y-4.4969
X4.71Y-4.5969
X4.71Y-5.4569
X4.71Y-5.5598
X4.81Y-4.4969
X4.81Y-4.5969
X4.81Y-5.4569
X4.81Y-5.5598
X4.91Y-4.4969
X4.91Y-4.5969
X4.91Y-5.4569
X4.91Y-5.5598
X5.01Y-4.4969
X5.01Y-4.5969
X5.01Y-5.4569
X5.01Y-5.5598
X5.11Y-4.4969
X5.11Y-4.5969
X5.11Y-5.4569
X5.11Y-5.5598
X5.21Y-4.4969
X5.21Y-4.5969
X5.21Y-5.4569
X5.21Y-5.5598
X5.31Y-4.4969
X5.31Y-4.5969
X5.41Y-4.4969
X5.41Y-4.5969
X5.41Y-5.4569
X5.41Y-5.5598
X5.51Y-4.4969
X5.51Y-4.5969
X5.61Y-4.4969
X5.61Y-4.5969
X5.71Y-4.4969
X5.71Y-4.5969
X5.81Y-4.4969
X5.81Y-4.5969
X5.91Y-4.4969
X5.91Y-4.5969
X7.1669Y-3.1024
X7.1669Y-3.4449
X7.2669Y-3.1024
X7.2669Y-3.4449
X7.3669Y-3.1024
X7.3669Y-3.4449
X7.4669Y-3.1024
X7.4669Y-3.4449
X7.5669Y-3.1024
X7.5669Y-3.4449
X7.6669Y-3.1024
X7.6669Y-3.4449
X7.7669Y-3.1024
X7.7669Y-3.4449
X7.8669Y-3.1024
X7.8669Y-3.4449
X7.9669Y-3.1024
X7.9669Y-3.4449
T5
X3.2713Y-2.3149
X3.2713Y-2.6275
X3.3713Y-2.3149
X3.3713Y-2.6275
X3.4713Y-2.3149
X3.4713Y-2.6275
X3.5713Y-2.3149
X3.5713Y-2.6275
X3.576Y-1.4268
X3.576Y-1.5268
X3.576Y-1.6268
X3.576Y-1.7268
X3.8886Y-1.4268
X3.8886Y-1.5268
X3.8886Y-1.6268
X3.8886Y-1.7268
X4.3179Y-3.4543
X4.3179Y-3.5543
X4.3179Y-3.6543
X4.3179Y-3.7543
X4.3933Y-2.2386
X4.3933Y-2.5512
X4.4933Y-2.2386
X4.4933Y-2.5512
X4.5933Y-2.2386
X4.5933Y-2.5512
X4.6305Y-3.4543
X4.6305Y-3.5543
X4.6305Y-3.6543
X4.6305Y-3.7543
X4.6933Y-2.2386
X4.6933Y-2.5512
X5.0213Y-2.2374
X5.0213Y-2.55
X5.1213Y-2.2374
X5.1213Y-2.55
X5.2213Y-2.2374
X5.2213Y-2.55
X5.3213Y-2.2374
X5.3213Y-2.55
X5.6138Y-2.2386
X5.6138Y-2.5512
X5.7138Y-2.2386
X5.7138Y-2.5512
X5.8138Y-2.2386
X5.8138Y-2.5512
X5.9138Y-2.2386
X5.9138Y-2.5512
X6.0233Y-3.4858
X6.0233Y-3.5858
X6.0233Y-3.6858
X6.0233Y-3.7858
X6.2043Y-2.2425
X6.2043Y-2.5551
X6.3043Y-2.2425
X6.3043Y-2.5551
X6.3359Y-3.4858
X6.3359Y-3.5858
X6.3359Y-3.6858
X6.3359Y-3.7858
X6.4043Y-2.2425
X6.4043Y-2.5551
X6.5043Y-2.2425
X6.5043Y-2.5551
X6.5774Y-4.8972
X6.5774Y-4.9972
X6.5774Y-5.0972
X6.5774Y-5.1972
X6.89Y-4.8972
X6.89Y-4.9972
X6.89Y-5.0972
X6.89Y-5.1972
X6.9598Y-2.539
X6.9598Y-2.639
X6.9598Y-2.739
X6.9598Y-2.839
X7.2724Y-2.539
X7.2724Y-2.639
X7.2724Y-2.739
X7.2724Y-2.839
T6
X3.2244Y-1.3203
X3.2244Y-1.7506
X3.2362Y-2.7415
X3.2362Y-3.1719
X3.374Y-2.7415
X3.374Y-3.1719
X3.5118Y-2.7415
X3.5118Y-3.1719
X3.6496Y-2.7415
X3.6496Y-3.1719
X3.8937Y-3.9482
X3.8937Y-4.3785
X3.8996Y-3.1116
X3.8996Y-3.5419
X4.0354Y-3.9482
X4.0354Y-4.3785
X4.0374Y-3.1116
X4.0374Y-3.5419
X4.1752Y-3.1116
X4.1752Y-3.5419
X4.3583Y-1.6156
X4.3583Y-2.0459
X4.4921Y-1.6156
X4.4921Y-2.0459
X4.8268Y-3.2691
X4.8268Y-3.6994
X4.9685Y-3.2691
X4.9685Y-3.6994
X4.9869Y-1.6156
X4.9869Y-2.0459
X5.1102Y-3.2691
X5.1102Y-3.6994
X5.122Y-1.6156
X5.122Y-2.0459
X5.248Y-3.2691
X5.248Y-3.6994
X5.4758Y-3.4213
X5.4758Y-3.563
X5.4758Y-3.7047
X5.4758Y-3.8465
X5.5774Y-1.6156
X5.5774Y-2.0459
X5.7126Y-1.6156
X5.7126Y-2.0459
X5.9061Y-3.4213
X5.9061Y-3.563
X5.9061Y-3.7047
X5.9061Y-3.8465
X6.1654Y-1.6156
X6.1654Y-2.0459
X6.3031Y-1.6156
X6.3031Y-2.0459
X6.337Y-4.823
X6.337Y-5.2533
X6.4404Y-3.3071
X6.4404Y-3.4488
X6.4606Y-3.5604
X6.4606Y-3.9907
X6.5984Y-3.5604
X6.5984Y-3.9907
X6.7402Y-3.5604
X6.7402Y-3.9907
X6.8707Y-3.3071
X6.8707Y-3.4488
X6.8819Y-3.5604
X6.8819Y-3.9907
X7.1691Y-4.315
X7.1691Y-4.4567
X7.1691Y-4.8372
X7.1691Y-5.1601
X7.1715Y-5.3018
X7.3843Y-2.8415
X7.5994Y-4.315
X7.5994Y-4.4567
X7.5994Y-4.8372
X7.5994Y-5.1601
X7.6018Y-5.3018
X7.8146Y-2.8415
T7
X8.0412Y-4.9646
X8.2381Y-4.9646
T8
X4.0491Y-1.4785
X4.0491Y-1.5785
X4.0491Y-1.6785
X4.0491Y-1.8547
X4.0491Y-1.9547
X4.0491Y-2.0547
T9
X3.0866Y-1.9154
X3.0866Y-2.1122
X3.123Y-2.3445
X3.123Y-2.5413
X3.2244Y-1.9154
X3.2244Y-2.1122
X3.4606Y-1.8858
X3.4606Y-2.0827
X3.6319Y-1.2894
X3.7096Y-4.9075
X3.7096Y-5.0075
X3.7096Y-5.1075
X3.8287Y-1.2894
X3.9803Y-3.6535
X4.0157Y-2.378
X4.0157Y-2.5748
X4.1772Y-3.6535
X4.3681Y-3.0059
X4.565Y-3.0059
X4.6339Y-4.1642
X4.7339Y-4.1642
X4.8339Y-4.1642
X4.9339Y-4.1642
X5.0339Y-4.1642
X5.1339Y-4.1642
X5.2339Y-4.1642
X5.3339Y-4.1642
X5.4339Y-4.1642
X5.5339Y-4.1642
X5.7087Y-3.2707
X5.9055Y-3.2707
X6.0787Y-4.2146
X6.0817Y-3.3219
X6.2756Y-4.2146
X6.2785Y-3.3219
X6.5039Y-5.365
X6.5039Y-5.5618
X6.648Y-4.4094
X6.8449Y-4.4094
X7.1441Y-3.8736
X7.2441Y-3.8736
X7.3441Y-3.8736
X7.3445Y-4.078
X7.4441Y-3.8736
X7.4445Y-4.078
X7.5441Y-3.8736
X7.5445Y-4.078
X7.6441Y-3.8736
X7.6445Y-4.078
X7.7441Y-3.8736
X7.7445Y-4.078
X7.8441Y-3.8736
X7.8445Y-4.078
X8.039Y-4.6929
X8.2358Y-4.6929
X8.2409Y-3.1356
X8.2409Y-3.2356
X8.2409Y-3.3356
X8.2715Y-1.643
X8.2715Y-2.0918
T10
X8.2715Y-2.4161
X8.2715Y-2.5161
X8.2715Y-2.6161
X8.2715Y-2.7161
T11
X4.4748Y-1.36
X4.5748Y-1.36
X4.6748Y-1.36
X4.6811Y-1.5354
X4.6811Y-2.126
X5.1008Y-1.36
X5.2008Y-1.36
X5.3008Y-1.36
X5.3071Y-1.5354
X5.3071Y-2.126
X5.6913Y-1.36
X5.7913Y-1.36
X5.8913Y-1.36
X5.8976Y-1.5354
X5.8976Y-2.126
X6.2839Y-1.36
X6.3839Y-1.36
X6.4839Y-1.36
X6.4902Y-1.5354
X6.4902Y-2.126
X7.2046Y-2.1902
X7.6061Y-2.1902
T12
X3.3693Y-3.4969
X3.3693Y-3.5969
X3.3693Y-3.6969
X3.3693Y-3.7969
X3.3693Y-3.8969
X3.3693Y-3.9969
X3.3693Y-4.0969
X3.3693Y-4.1969
X3.6929Y-3.4961
X3.6929Y-3.5961
X3.6929Y-3.6961
X3.6929Y-3.7961
X3.6929Y-3.8961
X3.6929Y-3.9961
X3.6929Y-4.0961
X3.6929Y-4.1961
T13
X3.3858Y-1.3346
X3.3858Y-1.7346
X7.185Y-5.0
X7.585Y-5.0
T14
X2.7638Y-5.0457
X2.7638Y-5.2457
X2.8101Y-3.3528
X2.8101Y-3.5528
X2.8425Y-2.5866
X2.8425Y-2.7835
X2.8425Y-2.9803
X2.8425Y-4.2795
X2.8425Y-4.4764
X2.8425Y-4.6732
X4.8366Y-2.7047
X4.8366Y-3.0984
X5.2382Y-2.7047
X5.2382Y-3.0984
X5.5118Y-2.7047
X5.5118Y-3.0984
X5.9134Y-2.7047
X5.9134Y-3.0984
X6.187Y-2.7047
X6.187Y-3.0984
X6.5886Y-2.7047
X6.5886Y-3.0984
T15
X5.3366Y-2.9016
X6.0118Y-2.9016
X6.687Y-2.9016
T16
X7.055Y-1.6902
X7.4054Y-2.2887
X7.7557Y-1.2926
X7.7557Y-1.5918
T17
X2.7638Y-1.2874
X2.7638Y-5.6181
X8.2756Y-1.2874
X8.2756Y-5.6181
T0
M30
