M48
; DRILL file {KiCad (6.0.0)} date Fri Feb 11 13:12:19 2022
; FORMAT={-:-/ absolute / inch / decimal}
; #@! TF.CreationDate,2022-02-11T13:12:19-03:00
; #@! TF.GenerationSoftware,Kicad,Pcbnew,(6.0.0)
; #@! TF.FileFunction,Plated,1,2,PTH
FMAT,2
INCH
; #@! TA.AperFunction,Plated,PTH,ViaDrill
T1C0.0118
; #@! TA.AperFunction,Plated,PTH,ComponentDrill
T2C0.0157
; #@! TA.AperFunction,Plated,PTH,ViaDrill
T3C0.0236
; #@! TA.AperFunction,Plated,PTH,ComponentDrill
T4C0.0280
; #@! TA.AperFunction,Plated,PTH,ComponentDrill
T5C0.0300
; #@! TA.AperFunction,Plated,PTH,ComponentDrill
T6C0.0307
; #@! TA.AperFunction,Plated,PTH,ComponentDrill
T7C0.0311
; #@! TA.AperFunction,Plated,PTH,ComponentDrill
T8C0.0335
; #@! TA.AperFunction,Plated,PTH,ComponentDrill
T9C0.0370
; #@! TA.AperFunction,Plated,PTH,ComponentDrill
T10C0.0394
; #@! TA.AperFunction,Plated,PTH,ComponentDrill
T11C0.0433
; #@! TA.AperFunction,Plated,PTH,ComponentDrill
T12C0.0440
; #@! TA.AperFunction,Plated,PTH,ComponentDrill
T13C0.0472
; #@! TA.AperFunction,Plated,PTH,ComponentDrill
T14C0.0551
; #@! TA.AperFunction,Plated,PTH,ComponentDrill
T15C0.0591
; #@! TA.AperFunction,Plated,PTH,ComponentDrill
T16C0.0827
; #@! TA.AperFunction,Plated,PTH,ComponentDrill
T17C0.0866
%
G90
G05
T1
X7.748Y-2.9252
T2
X2.6988Y-1.2874
X2.6988Y-5.6181
X2.7178Y-1.2415
X2.7178Y-1.3333
X2.7178Y-5.5722
X2.7178Y-5.664
X2.7638Y-1.2224
X2.7638Y-1.3524
X2.7638Y-5.5531
X2.7638Y-5.6831
X2.8097Y-1.2415
X2.8097Y-1.3333
X2.8097Y-5.5722
X2.8097Y-5.664
X2.8287Y-1.2874
X2.8287Y-5.6181
X8.2106Y-1.2874
X8.2106Y-5.6181
X8.2297Y-1.2415
X8.2297Y-1.3333
X8.2297Y-5.5722
X8.2297Y-5.664
X8.2756Y-1.2224
X8.2756Y-1.3524
X8.2756Y-5.5531
X8.2756Y-5.6831
X8.3215Y-1.2415
X8.3215Y-1.3333
X8.3215Y-5.5722
X8.3215Y-5.664
X8.3406Y-1.2874
X8.3406Y-5.6181
T3
X3.5906Y-4.2087
X3.5906Y-4.4685
X4.0315Y-4.0512
X4.1535Y-1.8169
X4.1535Y-1.9882
X4.2421Y-2.0906
X4.2421Y-2.2697
X4.3189Y-5.5591
X4.437Y-5.4803
X4.4882Y-4.9252
X4.5157Y-3.8858
X4.6457Y-4.0512
X4.6457Y-4.0512
X4.6732Y-4.5945
X4.7323Y-2.7047
X4.7323Y-2.9606
X4.7717Y-5.6772
X4.7717Y-5.7559
X4.8701Y-4.5945
X4.874Y-3.9646
X5.4016Y-5.5787
X5.5787Y-4.0236
X5.7402Y-5.5787
X6.3268Y-2.3898
X6.5984Y-5.0118
X6.622Y-2.3898
X6.7165Y-5.4213
X7.6378Y-3.9567
X7.9449Y-3.9567
T4
X3.6171Y-2.0272
X3.7171Y-2.0272
X3.7756Y-2.4787
X3.7756Y-2.5787
X3.7756Y-2.6787
X3.8171Y-2.0272
X4.4276Y-3.3465
X4.4764Y-4.2447
X4.4764Y-4.3447
X4.4764Y-4.4447
X4.5276Y-3.3465
X4.6276Y-3.3465
X5.2205Y-4.2425
X5.2205Y-4.3425
X5.2205Y-4.4425
X5.2257Y-4.678
X5.2257Y-4.778
X5.2257Y-4.878
X5.2257Y-5.0913
X5.2257Y-5.1913
X5.2257Y-5.2913
X6.0772Y-3.9094
X6.1772Y-3.9094
X6.1992Y-4.8978
X6.1992Y-4.9978
X6.1992Y-5.0978
X6.2772Y-3.9094
X7.4512Y-2.6614
X7.5512Y-2.6614
X7.6512Y-2.6614
T5
X6.7146Y-4.1722
X6.7146Y-4.2699
X6.7146Y-4.3699
X6.7146Y-4.4699
X6.7146Y-4.5699
X6.7146Y-4.6699
X6.7146Y-4.7699
X6.7146Y-4.8699
X6.7146Y-5.0699
X6.8176Y-4.1722
X6.8176Y-4.2699
X6.8176Y-4.3699
X6.8176Y-4.4699
X6.8176Y-4.5699
X6.8176Y-4.6699
X6.8176Y-4.7699
X6.8176Y-4.8699
X6.8176Y-5.0699
X7.3307Y-3.0189
X7.3307Y-3.1189
X7.3307Y-3.2189
X7.3307Y-3.3189
X7.3307Y-3.4189
X7.3307Y-3.5189
X7.3307Y-3.6189
X7.3307Y-3.7189
X7.3307Y-3.8189
X7.6732Y-3.0189
X7.6732Y-3.1189
X7.6732Y-3.2189
X7.6732Y-3.3189
X7.6732Y-3.4189
X7.6732Y-3.5189
X7.6732Y-3.6189
X7.6732Y-3.7189
X7.6732Y-3.8189
X7.6776Y-4.1699
X7.6776Y-4.2699
X7.6776Y-4.3699
X7.6776Y-4.4699
X7.6776Y-4.5699
X7.6776Y-4.6699
X7.6776Y-4.7699
X7.6776Y-4.8699
X7.6776Y-4.9699
X7.6776Y-5.0699
X7.6776Y-5.1699
X7.6776Y-5.2699
X7.6776Y-5.3699
X7.6776Y-5.4699
X7.6776Y-5.5699
X7.7776Y-4.1699
X7.7776Y-4.2699
X7.7776Y-4.3699
X7.7776Y-4.4699
X7.7776Y-4.5699
X7.7776Y-4.6699
X7.7776Y-4.7699
X7.7776Y-4.8699
X7.7776Y-4.9699
X7.7776Y-5.0699
X7.7776Y-5.1699
X7.7776Y-5.2699
X7.7776Y-5.3699
X7.7776Y-5.4699
X7.7776Y-5.5699
T6
X3.2319Y-2.4173
X3.2319Y-2.7299
X3.3319Y-2.4173
X3.3319Y-2.7299
X3.4319Y-2.4173
X3.4319Y-2.7299
X3.5319Y-2.4173
X3.5319Y-2.7299
X3.5569Y-1.4834
X3.5569Y-1.5834
X3.5569Y-1.6834
X3.5569Y-1.7834
X3.8695Y-1.4834
X3.8695Y-1.5834
X3.8695Y-1.6834
X3.8695Y-1.7834
X4.3715Y-3.5902
X4.3715Y-3.6902
X4.3715Y-3.7902
X4.3715Y-3.8902
X4.3953Y-2.1874
X4.3953Y-2.5
X4.4953Y-2.1874
X4.4953Y-2.5
X4.5953Y-2.1874
X4.5953Y-2.5
X4.6768Y-4.1813
X4.6768Y-4.4939
X4.6841Y-3.5902
X4.6841Y-3.6902
X4.6841Y-3.7902
X4.6841Y-3.8902
X4.6953Y-2.1874
X4.6953Y-2.5
X4.7768Y-4.1813
X4.7768Y-4.4939
X4.8768Y-4.1813
X4.8768Y-4.4939
X4.9768Y-4.1813
X4.9768Y-4.4939
X5.0232Y-2.1862
X5.0232Y-2.4988
X5.1232Y-2.1862
X5.1232Y-2.4988
X5.2232Y-2.1862
X5.2232Y-2.4988
X5.3232Y-2.1862
X5.3232Y-2.4988
X5.6157Y-2.1874
X5.6157Y-2.5
X5.7157Y-2.1874
X5.7157Y-2.5
X5.8157Y-2.1874
X5.8157Y-2.5
X5.9157Y-2.1874
X5.9157Y-2.5
X6.0233Y-3.3657
X6.0233Y-3.4657
X6.0233Y-3.5657
X6.0233Y-3.6657
X6.2063Y-2.1913
X6.2063Y-2.5039
X6.3063Y-2.1913
X6.3063Y-2.5039
X6.3359Y-3.3657
X6.3359Y-3.4657
X6.3359Y-3.5657
X6.3359Y-3.6657
X6.4063Y-2.1913
X6.4063Y-2.5039
X6.5063Y-2.1913
X6.5063Y-2.5039
X6.9598Y-2.539
X6.9598Y-2.639
X6.9598Y-2.739
X6.9598Y-2.839
X7.2724Y-2.539
X7.2724Y-2.639
X7.2724Y-2.739
X7.2724Y-2.839
T7
X3.1969Y-2.8439
X3.1969Y-3.2742
X3.2486Y-1.4695
X3.2486Y-1.8998
X3.3346Y-2.8439
X3.3346Y-3.2742
X3.4724Y-2.8439
X3.4724Y-3.2742
X3.6102Y-2.8439
X3.6102Y-3.2742
X3.9488Y-3.7888
X3.9488Y-4.2191
X3.9528Y-3.2573
X3.9528Y-3.6876
X4.0906Y-3.2573
X4.0906Y-3.6876
X4.0906Y-3.7888
X4.0906Y-4.2191
X4.2283Y-3.2573
X4.2283Y-3.6876
X4.3602Y-1.597
X4.3602Y-2.0274
X4.4941Y-1.597
X4.4941Y-2.0274
X4.5722Y-4.7754
X4.5722Y-5.2057
X4.7139Y-4.773
X4.7139Y-5.2033
X4.8268Y-3.2691
X4.8268Y-3.6994
X4.8754Y-4.0512
X4.9685Y-3.2691
X4.9685Y-3.6994
X4.9888Y-1.597
X4.9888Y-2.0274
X5.0368Y-4.773
X5.0368Y-5.2033
X5.1102Y-3.2691
X5.1102Y-3.6994
X5.124Y-1.597
X5.124Y-2.0274
X5.248Y-3.2691
X5.248Y-3.6994
X5.3057Y-4.0512
X5.4173Y-4.773
X5.4173Y-5.2033
X5.4778Y-3.4173
X5.4778Y-3.5591
X5.4778Y-3.7008
X5.4778Y-3.8425
X5.5591Y-4.773
X5.5591Y-5.2033
X5.5794Y-1.597
X5.5794Y-2.0274
X5.7146Y-1.597
X5.7146Y-2.0274
X5.9081Y-3.4173
X5.9081Y-3.5591
X5.9081Y-3.7008
X5.9081Y-3.8425
X6.1673Y-1.597
X6.1673Y-2.0274
X6.3051Y-1.597
X6.3051Y-2.0274
X6.4404Y-3.3071
X6.4423Y-3.4488
X6.4606Y-3.5604
X6.4606Y-3.9907
X6.5984Y-3.5604
X6.5984Y-3.9907
X6.7402Y-3.5604
X6.7402Y-3.9907
X6.8707Y-3.3071
X6.8726Y-3.4488
X6.8819Y-3.5604
X6.8819Y-3.9907
X7.3872Y-2.8504
X7.8175Y-2.8504
T8
X3.6496Y-4.9173
X3.8465Y-4.9173
T9
X4.03Y-1.5352
X4.03Y-1.6352
X4.03Y-1.7352
X4.03Y-1.9114
X4.03Y-2.0114
X4.03Y-2.1114
T10
X2.9567Y-2.0394
X2.9567Y-2.2362
X3.0945Y-2.0394
X3.0945Y-2.2362
X3.2762Y-2.0429
X3.2762Y-2.2397
X3.3996Y-5.4449
X3.41Y-2.0429
X3.41Y-2.2397
X3.4996Y-5.4449
X3.5996Y-5.4449
X3.6496Y-5.2559
X3.6996Y-5.4449
X3.7996Y-5.4449
X3.8465Y-5.2559
X3.8996Y-5.4449
X3.9764Y-2.4803
X3.9764Y-2.6772
X4.1102Y-2.4803
X4.1102Y-2.6772
X4.437Y-2.9685
X4.437Y-3.1024
X4.6339Y-2.9685
X4.6339Y-3.1024
X5.4646Y-4.252
X5.4646Y-4.4488
X5.5945Y-3.2795
X5.5984Y-4.252
X5.5984Y-4.4488
X5.7913Y-3.2795
X6.0443Y-5.3559
X6.0443Y-5.4559
X6.0443Y-5.5559
X6.0787Y-4.0945
X6.0787Y-4.2323
X6.2756Y-4.0945
X6.2756Y-4.2323
X6.3465Y-5.3612
X6.3465Y-5.4612
X6.3465Y-5.5612
X8.0984Y-4.3805
X8.0984Y-4.4805
X8.0984Y-4.5805
X8.0984Y-4.6805
X8.0984Y-4.7805
X8.0984Y-4.8805
X8.0984Y-4.9805
X8.0984Y-5.0805
X8.0984Y-5.1805
X8.0984Y-5.2805
X8.2362Y-3.3128
X8.2362Y-3.4128
X8.2362Y-3.5128
X8.2362Y-3.6128
X8.2362Y-3.7128
X8.2362Y-3.8128
X8.2362Y-3.9128
X8.2362Y-4.0128
X8.2715Y-1.643
X8.2715Y-2.0918
T11
X4.4807Y-1.297
X4.5807Y-1.297
X4.6807Y-1.297
X4.6831Y-1.4815
X4.6831Y-2.072
X5.1106Y-1.297
X5.2106Y-1.297
X5.3091Y-1.4815
X5.3091Y-2.072
X5.3106Y-1.297
X5.7012Y-1.297
X5.8012Y-1.297
X5.8996Y-1.4815
X5.8996Y-2.072
X5.9012Y-1.297
X6.2917Y-1.297
X6.3917Y-1.297
X6.4917Y-1.297
X6.4921Y-1.4843
X6.4921Y-2.0748
X7.2046Y-2.1902
X7.6061Y-2.1902
T12
X3.3693Y-3.4969
X3.3693Y-3.5969
X3.3693Y-3.6969
X3.3693Y-3.7969
X3.3693Y-3.8969
X3.3693Y-3.9969
X3.3693Y-4.0969
X3.3693Y-4.1969
X3.6929Y-3.4961
X3.6929Y-3.5961
X3.6929Y-3.6961
X3.6929Y-3.7961
X3.6929Y-3.8961
X3.6929Y-3.9961
X3.6929Y-4.0961
X3.6929Y-4.1961
T13
X3.41Y-1.4838
X3.41Y-1.8838
X4.874Y-4.789
X4.874Y-5.189
T14
X2.7638Y-5.0457
X2.7638Y-5.2457
X2.8101Y-3.3528
X2.8101Y-3.5528
X2.8425Y-2.5866
X2.8425Y-2.7835
X2.8425Y-2.9803
X2.8425Y-4.2795
X2.8425Y-4.4764
X2.8425Y-4.6732
X4.8366Y-2.7047
X4.8366Y-3.0984
X5.2382Y-2.7047
X5.2382Y-3.0984
X5.5118Y-2.7047
X5.5118Y-3.0984
X5.9134Y-2.7047
X5.9134Y-3.0984
X6.187Y-2.7047
X6.187Y-3.0984
X6.5886Y-2.7047
X6.5886Y-3.0984
X8.2715Y-2.5154
X8.2715Y-2.7154
T15
X5.3366Y-2.9016
X6.0118Y-2.9016
X6.687Y-2.9016
T16
X7.055Y-1.6902
X7.4054Y-2.2887
X7.7557Y-1.2926
X7.7557Y-1.5918
T17
X2.7638Y-1.2874
X2.7638Y-5.6181
X8.2756Y-1.2874
X8.2756Y-5.6181
T0
M30
